<svg xmlns="http://www.w3.org/2000/svg" viewBox="0 0 980 160" role="img" aria-label="RIZO TECH wordmark">
  <g fill="#111111">
    <!-- R -->
    <path d="M40 30H120C156 30 178 48 178 78C178 98 166 112 146 120L184 130V150H142L112 128H92V150H40V30ZM92 62V96H118C130 96 138 90 138 79C138 68 130 62 118 62H92Z"/>
    <!-- I -->
    <path d="M206 30H258V150H206V30Z"/>
    <!-- Z -->
    <path d="M280 30H392V62H332L392 118V150H280V118H340L280 62V30Z"/>
    <!-- O (stencil break on right side) -->
    <path d="M414 30H526V150H414V30ZM456 62V118H484V62H456ZM484 62H510V88H500V62H484ZM500 92H510V118H484V92H500Z"/>
    <!-- space -->
    <!-- T -->
    <path d="M580 30H708V62H670V150H618V62H580V30Z"/>
    <!-- E -->
    <path d="M732 30H860V62H784V78H850V108H784V118H860V150H732V30Z"/>
    <!-- C -->
    <path d="M882 30H970V62H934V118H970V150H882V30Z"/>
    <!-- H -->
    <path d="M992 30H1044V78H1078V30H1130V150H1078V108H1044V150H992V30Z"/>
  </g>
</svg>
